<?xml version="1.0" encoding="UTF-8"?>
<svg id="Layer_1" xmlns="http://www.w3.org/2000/svg" version="1.1" viewBox="0 0 160 160">
  <!-- Generator: Adobe Illustrator 30.1.0, SVG Export Plug-In . SVG Version: 2.1.1 Build 136)  -->
  <defs>
    <style>
      .st0 {
        fill: #bbb;
      }

      .st1 {
        fill: #ddd;
      }

      .st2 {
        fill: #eee;
      }

      .st3 {
        fill: #ccc;
      }

      .st4 {
        fill: #aaa;
      }
    </style>
  </defs>
  <polygon class="st3" points="60 80 60 120 100 100 100 60 60 80"/>
  <polygon class="st4" points="60 120 60 80 20 60 20 100 60 120"/>
  <polygon class="st1" points="160 0 160 70 100 100 100 60 60 80 60 0 160 0"/>
  <polygon class="st0" points="0 0 0 90 20 100 20 60 60 80 60 0 0 0"/>
  <polygon class="st2" points="160 70 160 160 0 160 0 90 60 120 160 70"/>
</svg>